HIERARCHY
ROOT Hips
{
	OFFSET 0.000000 0.000000 0.000000
	CHANNELS 6 Xposition Yposition Zposition Zrotation Yrotation Xrotation 
	JOINT LHipJoint
	{
		OFFSET 0.000000 0.000000 0.000000
		CHANNELS 3 Zrotation Yrotation Xrotation
		JOINT LeftUpLeg
		{
			OFFSET 1.363060 -1.794630 0.839290
			CHANNELS 3 Zrotation Yrotation Xrotation
			JOINT LeftLeg
			{
				OFFSET 2.448110 -6.726130 0.000000
				CHANNELS 3 Zrotation Yrotation Xrotation
				JOINT LeftFoot
				{
					OFFSET 2.562200 -7.039590 0.000000
					CHANNELS 3 Zrotation Yrotation Xrotation
					JOINT LeftToeBase
					{
						OFFSET 0.157640 -0.433110 2.322550
						CHANNELS 3 Zrotation Yrotation Xrotation
						End Site
						{
							OFFSET 0.000000 0.000000 0.000000
						}
					}
				}
			}
		}
	}
	JOINT RHipJoint
	{
		OFFSET 0.000000 0.000000 0.000000
		CHANNELS 3 Zrotation Yrotation Xrotation
		JOINT RightUpLeg
		{
			OFFSET -1.305520 -1.794630 0.839290
			CHANNELS 3 Zrotation Yrotation Xrotation
			JOINT RightLeg
			{
				OFFSET -2.542530 -6.985550 0.000000
				CHANNELS 3 Zrotation Yrotation Xrotation
				JOINT RightFoot
				{
					OFFSET -2.568260 -7.056230 0.000000
					CHANNELS 3 Zrotation Yrotation Xrotation
					JOINT RightToeBase
					{
						OFFSET -0.164730 -0.452590 2.363150
						CHANNELS 3 Zrotation Yrotation Xrotation
						End Site
						{
							OFFSET 0.000000 0.000000 0.000000
						}
					}
				}
			}
		}
	}
	JOINT LowerBack
	{
		OFFSET 0.000000 0.000000 0.000000
		CHANNELS 3 Zrotation Yrotation Xrotation
		JOINT Spine
		{
			OFFSET 0.028270 2.035590 -0.193380
			CHANNELS 3 Zrotation Yrotation Xrotation
			JOINT Spine1
			{
				OFFSET 0.056720 2.048850 -0.042750
				CHANNELS 3 Zrotation Yrotation Xrotation
				JOINT Neck
				{
					OFFSET 0.000000 0.000000 0.000000
					CHANNELS 3 Zrotation Yrotation Xrotation
					JOINT Neck1
					{
						OFFSET -0.054170 1.746240 0.172020
						CHANNELS 3 Zrotation Yrotation Xrotation
						JOINT Head
						{
							OFFSET 0.104070 1.761360 -0.123970
							CHANNELS 3 Zrotation Yrotation Xrotation
							End Site
							{
								OFFSET 0.000000 0.000000 0.000000
							}
						}
					}
				}
				JOINT LeftShoulder
				{
					OFFSET 0.000000 0.000000 0.000000
					CHANNELS 3 Zrotation Yrotation Xrotation
					JOINT LeftArm
					{
						OFFSET 3.362410 1.200890 -0.311210
						CHANNELS 3 Zrotation Yrotation Xrotation
						JOINT LeftForeArm
						{
							OFFSET 4.983000 -0.000000 -0.000000
							CHANNELS 3 Zrotation Yrotation Xrotation
							JOINT LeftHand
							{
								OFFSET 3.483560 -0.000000 -0.000000
								CHANNELS 3 Zrotation Yrotation Xrotation
								JOINT LeftFingerBase
								{
									OFFSET 0.000000 0.000000 0.000000
									CHANNELS 3 Zrotation Yrotation Xrotation
									JOINT LeftHandIndex1
									{
										OFFSET 0.715260 -0.000000 -0.000000
										CHANNELS 3 Zrotation Yrotation Xrotation
										End Site
										{
											OFFSET 0.000000 0.000000 0.000000
										}
									}
								}
								JOINT LThumb
								{
									OFFSET 0.000000 0.000000 0.000000
									CHANNELS 3 Zrotation Yrotation Xrotation
									End Site
									{
										OFFSET 0.000000 0.000000 0.000000
									}
								}
							}
						}
					}
				}
				JOINT RightShoulder
				{
					OFFSET 0.000000 0.000000 0.000000
					CHANNELS 3 Zrotation Yrotation Xrotation
					JOINT RightArm
					{
						OFFSET -3.136600 1.374050 -0.404650
						CHANNELS 3 Zrotation Yrotation Xrotation
						JOINT RightForeArm
						{
							OFFSET -5.241900 -0.000000 -0.000000
							CHANNELS 3 Zrotation Yrotation Xrotation
							JOINT RightHand
							{
								OFFSET -3.444170 -0.000000 -0.000000
								CHANNELS 3 Zrotation Yrotation Xrotation
								JOINT RightFingerBase
								{
									OFFSET 0.000000 0.000000 0.000000
									CHANNELS 3 Zrotation Yrotation Xrotation
									JOINT RightHandIndex1
									{
										OFFSET -0.622530 -0.000000 -0.000000
										CHANNELS 3 Zrotation Yrotation Xrotation
										End Site
										{
											OFFSET 0.000000 0.000000 0.000000
										}
									}
								}
								JOINT RThumb
								{
									OFFSET 0.000000 0.000000 0.000000
									CHANNELS 3 Zrotation Yrotation Xrotation
									End Site
									{
										OFFSET 0.000000 0.000000 0.000000
									}
								}
							}
						}
					}
				}
			}
		}
	}
}
MOTION
Frames: 11
Frame Time: 0.008333
0.247149 18.037008 -2.944987 2.646278 3.215066 4.510890 -6.749735 1.059797 3.499725 -15.740743 -6.881257 -19.021348 1.009444 10.319841 32.154737 1.065807 -0.280461 6.009533 0.900400 -6.047500 -16.922400 1.453660 -2.052765 3.036680 10.757093 -0.329263 -22.806644 -26.607506 -18.053033 107.559200 0.152166 -17.230711 28.233635 -2.468100 -9.779600 28.265900 -3.835858 -0.002464 13.768023 -1.948118 -0.751548 5.507052 -0.339527 0.181064 -9.068860 -3.498065 -0.099309 -6.483332 6.277011 -0.464508 -5.340508 1.594000 -0.268300 -3.025000 -4.155520 3.413834 -0.402909 -77.637987 -10.113996 43.412643 125.566243 -60.081960 -93.054259 0.383810 -1.643039 -30.208796 34.862019 6.916016 6.214600 -7.125000 0.000000 0.000000 7.501700 40.641300 -0.811500 4.907538 -3.049787 -2.284236 74.522292 -17.752784 41.649378 -71.973617 58.753437 -56.224063 2.582798 0.960185 8.351862 -41.544125 29.414037 -23.368300 7.125000 0.000000 0.000000 -8.065900 4.546600 -8.764300
0.256852 18.040057 -2.757296 2.749788 3.086346 4.696717 -6.783217 1.111425 3.635190 -15.873106 -6.796688 -18.526398 0.963676 10.236483 31.950274 1.023921 -0.160047 5.853091 0.932650 -6.150341 -17.221824 1.409598 -1.982984 2.926566 10.529344 0.044515 -23.992778 -26.761789 -18.095340 108.057386 0.235869 -17.044203 27.716599 -2.358748 -9.571518 27.603923 -3.865454 -0.060547 13.677063 -2.019602 -0.821965 5.459247 -0.366153 0.128287 -9.078352 -3.441238 -0.016034 -6.373153 6.219870 -0.356381 -5.473995 1.566357 -0.222077 -3.098714 -4.138949 3.379326 -0.376370 -77.651200 -10.895000 43.494996 125.568408 -60.056600 -93.073148 0.389729 -1.637352 -29.978695 34.743729 6.494898 5.896138 -7.125000 0.000000 0.000000 7.367370 40.123133 -0.888450 4.888442 -3.059799 -2.315466 74.719333 -18.261107 41.435865 -71.763225 58.708306 -56.049827 2.589087 0.960505 8.327777 -41.366552 29.434843 -23.264278 7.125000 0.000000 0.000000 -7.962906 4.510390 -8.645810
0.266556 18.043107 -2.569606 2.853299 2.957627 4.882544 -6.816699 1.163053 3.770655 -16.005469 -6.712120 -18.031448 0.917907 10.153124 31.745810 0.982034 -0.039633 5.696649 0.964900 -6.253183 -17.521249 1.365537 -1.913203 2.816452 10.301595 0.418292 -25.178913 -26.916072 -18.137646 108.555572 0.319572 -16.857696 27.199564 -2.249395 -9.363437 26.941945 -3.895049 -0.118629 13.586102 -2.091085 -0.892382 5.411441 -0.392778 0.075509 -9.087844 -3.384411 0.067240 -6.262973 6.162729 -0.248254 -5.607483 1.538715 -0.175853 -3.172428 -4.122378 3.344817 -0.349830 -77.664414 -11.676005 43.577348 125.570573 -60.031240 -93.092037 0.395648 -1.631664 -29.748593 34.625439 6.073780 5.577676 -7.125000 0.000000 0.000000 7.233041 39.604966 -0.965400 4.869347 -3.069811 -2.346696 74.916374 -18.769429 41.222351 -71.552833 58.663174 -55.875592 2.595377 0.960825 8.303693 -41.188978 29.455650 -23.160256 7.125000 0.000000 0.000000 -7.859913 4.474181 -8.527319
0.274513 18.049205 -2.380095 2.949786 2.855220 5.064118 -6.852411 1.222015 3.916466 -16.117591 -6.633696 -17.489457 0.859263 10.053799 31.490262 0.960143 0.031697 5.501105 0.995784 -6.350163 -17.804085 1.323068 -1.848261 2.705431 10.105149 0.774566 -26.342923 -27.029525 -18.190784 108.959788 0.438920 -16.570924 26.398035 -1.995778 -8.770145 25.132546 -3.933633 -0.192108 13.491418 -2.151374 -0.985496 5.343104 -0.399944 0.013035 -9.114992 -3.333291 0.158760 -6.165150 6.102109 -0.130106 -5.636989 1.508241 -0.121933 -3.204260 -4.107197 3.317908 -0.326420 -77.676789 -12.351763 43.631529 125.630279 -59.985055 -93.148562 0.403759 -1.627687 -29.489734 34.406165 5.822013 5.356719 -7.125000 0.000000 0.000000 7.015503 39.282192 -0.994224 4.849188 -3.083339 -2.376720 75.083672 -19.289528 41.045775 -71.398773 58.638749 -55.748507 2.602087 0.958120 8.206400 -41.037340 29.561856 -23.138162 7.125000 0.000000 0.000000 -7.750773 4.550712 -8.415728
0.279543 18.060413 -2.187532 3.034498 2.796925 5.238562 -6.891863 1.293269 4.079621 -16.195778 -6.565575 -16.868605 0.779031 9.927705 31.149072 0.971771 0.020740 5.240007 1.024378 -6.437318 -18.059114 1.283269 -1.791432 2.592892 9.961181 1.101495 -27.469841 -27.074528 -18.262081 109.206466 0.618024 -16.116062 25.119561 -1.500304 -7.531060 21.399528 -3.987285 -0.291398 13.390493 -2.192895 -1.116658 5.240346 -0.374484 -0.065695 -9.171739 -3.291738 0.264103 -6.088039 6.035656 0.004841 -5.492172 1.473021 -0.055111 -3.165880 -4.094346 3.303740 -0.308255 -77.687762 -12.851082 43.638478 125.786453 -59.903957 -93.268185 0.415545 -1.626577 -29.182662 34.017595 5.854156 5.299225 -7.125000 0.000000 0.000000 6.658471 39.286990 -0.942366 4.827245 -3.102760 -2.404725 75.201106 -19.829368 40.931124 -71.339153 58.649036 -55.700470 2.609502 0.950345 7.986375 -40.929182 29.811233 -23.253416 7.125000 0.000000 0.000000 -7.631331 4.816249 -8.315705
0.284573 18.071622 -1.994970 3.119211 2.738630 5.413006 -6.931315 1.364524 4.242776 -16.273964 -6.497453 -16.247754 0.698800 9.801611 30.807881 0.983399 0.009783 4.978910 1.052973 -6.524472 -18.314142 1.243469 -1.734603 2.480353 9.817213 1.428424 -28.596760 -27.119532 -18.333377 109.453143 0.797129 -15.661200 23.841088 -1.004830 -6.291975 17.666510 -4.040938 -0.390688 13.289567 -2.234416 -1.247821 5.137589 -0.349025 -0.144426 -9.228485 -3.250185 0.369447 -6.010929 5.969204 0.139788 -5.347356 1.437802 0.011711 -3.127500 -4.081496 3.289572 -0.290090 -77.698734 -13.350400 43.645428 125.942626 -59.822859 -93.387808 0.427331 -1.625467 -28.875591 33.629025 5.886299 5.241731 -7.125000 0.000000 0.000000 6.301439 39.291787 -0.890507 4.805302 -3.122182 -2.432729 75.318541 -20.369208 40.816473 -71.279533 58.659323 -55.652433 2.616918 0.942569 7.766351 -40.821024 30.060610 -23.368670 7.125000 0.000000 0.000000 -7.511889 5.081786 -8.215681
0.287235 18.089637 -1.802881 3.226309 2.706374 5.526129 -6.977786 1.447089 4.419618 -16.354437 -6.450016 -15.551088 0.593448 9.638390 30.350486 0.929032 0.168208 5.178723 1.201521 -6.924426 -19.504156 1.204195 -1.684471 2.371796 9.668049 1.749120 -29.659402 -27.134319 -18.422069 109.521112 0.854191 -15.271785 23.274296 -0.776035 -5.587131 15.600403 -4.144324 -0.517146 13.314082 -2.247635 -1.430987 4.983297 -0.263766 -0.239035 -9.400912 -3.250303 0.487873 -5.832645 5.877434 0.288992 -5.168586 1.399509 0.087552 -3.093644 -4.073791 3.296264 -0.277939 -77.743395 -13.566059 43.601145 126.228302 -59.703466 -93.580533 0.431842 -1.616530 -28.527564 33.483164 6.026469 5.297732 -7.125000 0.000000 0.000000 6.160470 39.436910 -0.848749 4.781470 -3.155887 -2.459893 75.305856 -20.985994 40.842535 -71.315490 58.714139 -55.697695 2.620034 0.949115 7.617982 -40.749241 30.092910 -23.343656 7.125000 0.000000 0.000000 -7.466848 5.093021 -8.167269
0.289097 18.109955 -1.610952 3.340979 2.682925 5.618512 -7.026632 1.533479 4.601088 -16.435683 -6.409575 -14.828780 0.479600 9.462612 29.853787 0.852344 0.383923 5.534433 1.390641 -7.430181 -21.010416 1.165098 -1.636605 2.264585 9.517128 2.067708 -30.700303 -27.138886 -18.516645 109.528636 0.869975 -14.904507 22.948219 -0.637441 -5.062987 14.098103 -4.264532 -0.652793 13.381026 -2.251282 -1.631743 4.811574 -0.158281 -0.339015 -9.612466 -3.264515 0.610725 -5.620141 5.777101 0.443017 -4.978332 1.360177 0.166444 -3.061318 -4.067827 3.310011 -0.267823 -77.799450 -13.685774 43.539533 126.557780 -59.571120 -93.797984 0.433891 -1.604945 -28.165685 33.419395 6.203178 5.392121 -7.125000 0.000000 0.000000 6.092582 39.629495 -0.810407 4.756999 -3.194423 -2.486772 75.249161 -21.628807 40.916191 -71.383774 58.784016 -55.774513 2.621696 0.960504 7.493849 -40.689762 30.051787 -23.271199 7.125000 0.000000 0.000000 -7.446973 5.018241 -8.136313
0.290987 18.131258 -1.418603 3.449391 2.668331 5.700200 -7.074622 1.622474 4.784404 -16.508730 -6.371121 -14.098161 0.364172 9.284202 29.347819 0.778191 0.594665 5.895300 1.574951 -7.915509 -22.459356 1.127371 -1.590758 2.158993 9.377032 2.380688 -31.712171 -27.133180 -18.613132 109.500929 0.884674 -14.548061 22.638723 -0.502023 -4.529549 12.573380 -4.378352 -0.791993 13.467687 -2.250587 -1.836498 4.640389 -0.051189 -0.440185 -9.834258 -3.275068 0.729216 -5.411877 5.671324 0.591860 -4.795087 1.318254 0.242639 -3.030585 -4.062059 3.325078 -0.258191 -77.856145 -13.789435 43.478829 126.885819 -59.439826 -94.013982 0.435507 -1.592431 -27.808333 33.376754 6.336703 5.461849 -7.125000 0.000000 0.000000 6.042358 39.771802 -0.782085 4.732641 -3.232854 -2.513025 75.183124 -22.270466 40.999055 -71.461799 58.857769 -55.860185 2.623228 0.971791 7.373339 -40.631068 30.011396 -23.199694 7.125000 0.000000 0.000000 -7.427245 4.944510 -8.105657
0.293086 18.159735 -1.223189 3.512296 2.718136 5.704102 -7.116379 1.730409 4.981141 -16.522149 -6.347117 -13.307098 0.237262 9.086651 28.774433 0.722476 0.769238 6.293669 1.724282 -8.252285 -23.491425 1.099603 -1.559606 2.065175 9.315664 2.652875 -32.512892 -27.052761 -18.723528 109.216994 0.891481 -14.270393 22.449804 -0.389700 -3.928531 10.885577 -4.445714 -0.957035 13.697739 -2.218313 -2.070346 4.473116 0.067595 -0.550008 -10.130513 -3.259014 0.815993 -5.234453 5.525951 0.703014 -4.662824 1.257486 0.299219 -3.011433 -4.057723 3.349740 -0.252087 -77.917492 -13.776335 43.424722 127.203388 -59.316184 -94.219407 0.433968 -1.573157 -27.483902 33.487777 6.156167 5.352231 -7.125000 0.000000 0.000000 6.120603 39.548452 -0.826633 4.709106 -3.270527 -2.534727 75.049145 -22.903731 41.148878 -71.610670 58.959703 -56.010255 2.623817 0.982328 7.279169 -40.578086 29.976330 -23.135118 7.125000 0.000000 0.000000 -7.408588 4.878411 -8.077177
0.295185 18.188211 -1.027775 3.575202 2.767940 5.708004 -7.158137 1.838344 5.177879 -16.535567 -6.323113 -12.516035 0.110352 8.889100 28.201047 0.666760 0.943811 6.692038 1.873614 -8.589062 -24.523495 1.071836 -1.528453 1.971356 9.254296 2.925062 -33.313612 -26.972341 -18.833923 108.933059 0.898288 -13.992725 22.260885 -0.277378 -3.327512 9.197775 -4.513076 -1.122076 13.927792 -2.186038 -2.304193 4.305842 0.186378 -0.659830 -10.426768 -3.242960 0.902770 -5.057028 5.380579 0.814167 -4.530560 1.196718 0.355799 -2.992281 -4.053388 3.374402 -0.245983 -77.978838 -13.763234 43.370615 127.520956 -59.192542 -94.424833 0.432429 -1.553883 -27.159471 33.598800 5.975631 5.242612 -7.125000 0.000000 0.000000 6.198848 39.325102 -0.871181 4.685572 -3.308200 -2.556429 74.915166 -23.536996 41.298702 -71.759542 59.061638 -56.160324 2.624406 0.992865 7.184999 -40.525103 29.941265 -23.070543 7.125000 0.000000 0.000000 -7.389931 4.812313 -8.048697
